# AST/ASF file generated using VICON BodyLanguage
# -----------------------------------------------
:version 1.10
:name VICON
:units
  mass 1.0
  length 0.45
  angle deg
:documentation
   .ast/.asf automatically generated from VICON data using
   VICON BodyBuilder and BodyLanguage model FoxedUp or BRILLIANT.MOD
:root
   order TX TY TZ RX RY RZ
   axis XYZ
   position 0 0 0  
   orientation 0 0 0 
:bonedata
  begin
     id 1 
     name lhipjoint
     direction 0.653368 -0.678499 0.335782 
     length 2.51848 
     axis 0 0 0  XYZ
  end
  begin
     id 2 
     name lfemur
     direction 0.34202 -0.939693 0  
     length 6.57749  
     axis 0 0 20  XYZ
    dof rx ry rz
    limits (-160.0 20.0)
           (-70.0 70.0)
           (-60.0 70.0)
  end
  begin
     id 3 
     name ltibia
     direction 0.34202 -0.939693 0   
     length 7.94618   
     axis 0 0 20   XYZ
    dof rx
    limits (-10.0 170.0)
  end
  begin
     id 4 
     name lfoot
     direction 0.0811271 -0.222895 0.971461   
     length 2.31339   
     axis -90 7.62852e-016 20   XYZ
    dof rx rz
    limits (-45.0 90.0)
           (-70.0 20.0)
  end
  begin
     id 5 
     name ltoes
     direction 1.53568e-011 -4.21885e-011 1   
     length 1.15935   
     axis -90 7.62852e-016 20   XYZ
    dof rx
    limits (-90.0 20.0)
  end
  begin
     id 6 
     name rhipjoint
     direction -0.640058 -0.688614 0.340788   
     length 2.48149  
     axis 0 0 0  XYZ 
  end
  begin
     id 7 
     name rfemur
     direction -0.34202 -0.939693 0   
     length 6.57875   
     axis 0 0 -20   XYZ
    dof rx ry rz
    limits (-160.0 20.0)
           (-70.0 70.0)
           (-70.0 60.0)
  end
  begin
     id 8 
     name rtibia
     direction -0.34202 -0.939693 0   
     length 7.977   
     axis 0 0 -20   XYZ
    dof rx
    limits (-10.0 170.0)
 end
 begin
     id 9 
     name rfoot
     direction -0.0979793 -0.269196 0.958089   
     length 2.19857  
     axis -90 -7.62852e-016 -20   XYZ
    dof rx rz
    limits (-45.0 90.0)
           (-20.0 70.0)
  end
  begin
     id 10 
     name rtoes
     direction -1.53556e-011 -4.21868e-011 1   
     length 1.09838   
     axis -90 -7.62852e-016 -20   XYZ
    dof rx
    limits (-90.0 20.0)
  end
  begin
     id 11 
     name lowerback
     direction 0.0149039 0.998517 -0.0523597   
     length 2.10809   
     axis 0 0 0   XYZ
    dof rx ry rz
    limits (-20.0 45.0)
           (-30.0 30.0)
           (-30.0 30.0)
  end
  begin
     id 12 
     name upperback
     direction -0.00882659 0.999418 -0.0329624   
     length 2.1102   
     axis 0 0 0   XYZ
    dof rx ry rz
    limits (-20.0 45.0)
           (-30.0 30.0)
           (-30.0 30.0)
  end
  begin
     id 13 
     name thorax
     direction -0.0165585 0.999826 -0.0085833   
     length 2.11039   
     axis 0 0 0   XYZ
    dof rx ry rz
    limits (-20.0 45.0)
           (-30.0 30.0)
           (-30.0 30.0)
  end
  begin
     id 14 
     name lowerneck
     direction -0.0130877 0.999911 0.00260353   
     length 1.73253   
     axis 0 0 0   XYZ
    dof rx ry rz
    limits (-20.0 45.0)
           (-30.0 30.0)
           (-30.0 30.0)
  end
  begin
     id 15 
     name upperneck
     direction -0.0348454 0.928205 -0.370435   
     length 1.66692   
     axis 0 0 0   XYZ
    dof rx ry rz
    limits (-20.0 45.0)
           (-30.0 30.0)
           (-30.0 30.0)
  end
  begin
     id 16
     name head
     direction -0.00807754 0.992494 -0.122026  
     length 1.72765  
     axis 0 0 0   XYZ
    dof rx ry rz
    limits (-20.0 45.0)
           (-30.0 30.0)
           (-30.0 30.0)
  end
  begin
     id 17 
     name lclavicle
     direction 0.987582 0.144023 0.0627671  
     length 3.49235  
     axis 0 0 0   XYZ
    dof ry rz
    limits (-20.0 10.0)
           (0.0 20.0)
  end
  begin
     id 18 
     name lhumerus
     direction 1 -4.48958e-011 -1.45183e-018   
     length 5.41917   
     axis 180 -30 -90   XYZ
    dof rx ry rz
    limits (-60.0 90.0)
           (-90.0 90.0)
           (-90.0 90.0)
  end
  begin
     id 19
     name lradius
     direction 1 -4.48999e-011 5.75106e-027   
     length 2.44373   
     axis 180 -30 -90   XYZ
    dof rx
    limits (-10.0 170.0)
  end
  begin
     id 20
     name lwrist
     direction 1 -4.48987e-011 1.53461e-026   
     length 1.22186   
     axis -1.09697e-014 90 90   XYZ
    dof ry
    limits (-180.0 0.0)
 end
  begin
     id 21 
     name lhand
     direction 1 -4.48881e-011 3.06923e-026   
     length 0.727502   
     axis -1.95843e-014 90 90   XYZ
    dof rx rz
    limits (-90.0 90.0)
           (-45.0 45.0)
  end
  begin
     id 22 
     name lfingers
     direction 1 -4.48907e-011 6.13845e-026   
     length 0.586531   
     axis -3.91686e-014 90 90   XYZ
    dof rx
    limits (0.0 90.0)
  end
  begin
     id 23
     name lthumb
     direction 0.707107 -6.3487e-011 0.707107   
     length 0.842145   
     axis -90 45 2.85299e-015   XYZ
    dof rx rz
    limits (-45.0 45.0)
           (-45.0 45.0)
  end
  begin
     id 24 
     name rclavicle
     direction -0.980998 0.169556 0.0943023   
     length 3.29272  
     axis 0 0 0   XYZ 
    dof ry rz
    limits (-10.0 20.0)
           (-20.0 0.0)
  end
  begin
     id 25 
     name rhumerus
     direction -1 -1.83355e-005 2.45537e-005  
     length 5.58976   
     axis 180 30 90   XYZ
    dof rx ry rz
    limits (-90.0 60.0)
           (-90.0 90.0)
           (-90.0 90.0)
  end
  begin
     id 26 
     name rradius
     direction -1 -4.48967e-011 5.97228e-027   
     length 2.4806   
     axis 180 30 90   XYZ
    dof rx
    limits (-10.0 170.0)
  end
  begin
     id 27 
     name rwrist
     direction -1 -4.48963e-011 1.53461e-026   
     length 1.2403   
     axis -1.09697e-014 -90 -90   XYZ
    dof ry
    limits (-180.0 0.0)
  end
  begin
     id 28
     name rhand
     direction -1 -4.48881e-011 3.06923e-026   
     length 0.816009   
     axis -1.95843e-014 -90 -90   XYZ
    dof rx rz
    limits (-90.0 90.0)
           (-45.0 45.0)
  end
  begin
     id 29
     name rfingers
     direction -1 -4.49018e-011 6.13845e-026   
     length 0.657887   
     axis -3.91686e-014 -90 -90   XYZ
    dof rx
    limits (0.0 90.0)
  end
  begin
     id 30
     name rthumb
     direction -0.707107 -6.34872e-011 0.707107   
     length 0.944599   
     axis -90 -45 -2.85299e-015   XYZ
    dof rx rz
    limits (-45.0 45.0)
           (-45.0 45.0)
  end
:hierarchy
  begin
    root lhipjoint rhipjoint lowerback
    lhipjoint lfemur
    lfemur ltibia
    ltibia lfoot
    lfoot ltoes
    rhipjoint rfemur
    rfemur rtibia
    rtibia rfoot
    rfoot rtoes
    lowerback upperback
    upperback thorax
    thorax lowerneck lclavicle rclavicle
    lowerneck upperneck
    upperneck head
    lclavicle lhumerus
    lhumerus lradius
    lradius lwrist
    lwrist lhand lthumb
    lhand lfingers
    rclavicle rhumerus
    rhumerus rradius
    rradius rwrist
    rwrist rhand rthumb
    rhand rfingers
  end

#!OML:ASF F:\VICON\USERDATA\INSTALL\rory3\rory3.ASF
:FULLY-SPECIFIED
:DEGREES
19
root 1.06654 16.6447 -33.0054 11.6107 2.14262 -1.41008
lowerback -2.96955 0.0534361 -2.5399
upperback -1.63768 0.134072 0.575283
thorax -0.0224685 0.0854329 2.01797
lowerneck -17.8718 -3.49607 -2.42301
upperneck 34.4725 -6.29556 5.04917
head 15.341 -2.26338 1.40168
rclavicle 6.95746e-016 -3.97569e-015
rhumerus -40.0831 -5.63132 -78.5267
rradius 29.5373
rwrist -11.3332
rhand -4.16333 12.7446
rfingers 7.12502
rthumb 21.5971 -16.071
lclavicle 6.95746e-016 -3.97569e-015
lhumerus -30.7214 23.4536 70.7496
lradius 62.3736
lwrist 5.24524
lhand -2.90302 20.1763
lfingers 7.12502
lthumb 22.807 48.848
rfemur -38.7301 7.35409 17.5552
rtibia 26.3521
rfoot -18.2641 -23.0482
rtoes -0.966672
lfemur -8.47499 -10.5489 -23.1695
ltibia 17.5689
lfoot -23.6576 23.3169
ltoes -11.3707
20
root 1.05951 16.6456 -32.8983 11.6606 2.30025 -1.28369
lowerback -2.68999 0.0364016 -2.59334
upperback -2.07 0.101004 0.527261
thorax -0.620788 0.082176 1.99668
lowerneck -16.9485 -3.57087 -2.60156
upperneck 34.1868 -6.38813 5.19785
head 15.0094 -2.32956 1.48718
rclavicle 2.45996e-015 2.98177e-015
rhumerus -41.0316 -6.17404 -78.2499
rradius 29.2158
rwrist -11.2262
rhand -3.98935 12.3921
rfingers 7.12502
rthumb 21.7642 -16.4042
lclavicle 2.45996e-015 2.98177e-015
lhumerus -31.112 22.3564 70.6052
lradius 62.5588
lwrist 4.98079
lhand -2.91636 20.3515
lfingers 7.12502
lthumb 22.7942 49.0247
rfemur -38.9192 9.08719 16.1909
rtibia 24.4807
rfoot -19.1528 -24.8184
rtoes -0.825764
lfemur -7.30888 -10.7533 -23.3019
ltibia 16.0956
lfoot -23.3305 23.5181
ltoes -11.8767
21
root 1.05507 16.6453 -32.7919 11.7021 2.35439 -1.06922
lowerback -2.49767 -0.0771714 -2.84107
upperback -2.01632 -0.0507574 0.57819
thorax -0.665439 0.00920051 2.18499
lowerneck -17.6262 -3.6109 -2.79624
upperneck 34.1048 -6.38071 5.2238
head 15.1364 -2.3362 1.52194
rclavicle -2.41026e-015 4.17448e-015
rhumerus -40.8022 -6.4485 -78.1389
rradius 28.7561
rwrist -11.0552
rhand -3.77356 12.1532
rfingers 7.12502
rthumb 21.9714 -16.619
lclavicle -2.41026e-015 4.17448e-015
lhumerus -30.6061 22.0765 70.8011
lradius 62.5617
lwrist 4.52375
lhand -3.17728 20.2815
lfingers 7.12502
lthumb 22.5438 48.9853
rfemur -39.2686 10.6275 14.7491
rtibia 22.8583
rfoot -19.723 -26.5176
rtoes -1.22587
lfemur -6.17691 -10.6877 -23.5701
ltibia 14.7171
lfoot -22.8334 23.5421
ltoes -12.1562
22
root 1.04428 16.6406 -32.6784 11.7054 2.55004 -0.816558
lowerback -2.43149 -0.0696498 -2.97497
upperback -2.16204 -0.0428355 0.422991
thorax -0.852822 0.0183404 2.10093
lowerneck -17.2061 -3.74029 -2.78654
upperneck 33.8518 -6.59545 5.30995
head 14.9367 -2.42683 1.5192
rclavicle -6.88292e-015 -1.0138e-014
rhumerus -41.3939 -7.02289 -78.087
rradius 28.6252
rwrist -10.9711
rhand -3.65534 11.9537
rfingers 7.12502
rthumb 22.0849 -16.8051
lclavicle -6.88292e-015 -1.0138e-014
lhumerus -30.4832 20.9887 70.8044
lradius 62.6823
lwrist 4.21096
lhand -3.52161 20.6904
lfingers 7.12502
lthumb 22.2133 49.434
rfemur -39.6467 12.3453 13.1443
rtibia 21.5974
rfoot -21.4187 -28.2784
rtoes 0.569292
lfemur -4.93121 -10.5907 -23.8193
ltibia 13.1901
lfoot -22.378 23.2994
ltoes -12.7069
23
root 1.03119 16.6344 -32.5546 11.4157 2.8933 -0.634901
lowerback -1.84532 -0.225234 -3.06254
upperback -2.40431 -0.27203 0.408191
thorax -1.41675 -0.0833842 2.13385
lowerneck -16.8246 -3.78147 -3.08644
upperneck 33.8054 -6.60532 5.43538
head 14.8461 -2.46234 1.62684
rclavicle 9.6659e-015 3.97569e-016
rhumerus -42.1262 -7.18047 -77.9348
rradius 28.4413
rwrist -10.8783
rhand -3.25416 11.9995
rfingers 7.12502
rthumb 22.47 -16.7133
lclavicle 9.6659e-015 3.97569e-016
lhumerus -31.135 20.0256 70.6332
lradius 63.3293
lwrist 4.05837
lhand -3.24246 21.4483
lfingers 7.12502
lthumb 22.4813 50.1597
rfemur -39.8887 14.4831 11.4814
rtibia 20.9197
rfoot -24.9448 -30.105
rtoes 4.66897
lfemur -2.92978 -10.6529 -23.9872
ltibia 10.9503
lfoot -21.5688 23.1343
ltoes -12.0513
24
root 1.02582 16.6248 -32.43 11.2449 3.25556 -0.279493
lowerback -2.40788 -0.623237 -3.66218
upperback -1.58773 -0.761672 0.721539
thorax -0.223013 -0.352241 2.77788
lowerneck -18.3595 -3.69196 -3.42069
upperneck 33.6033 -6.24184 5.23695
head 15.0855 -2.35105 1.64281
rclavicle -8.17502e-015 -4.37326e-015
rhumerus -40.6774 -7.01648 -77.7488
rradius 27.9726
rwrist -10.713
rhand -2.77802 12.1863
rfingers 7.12502
rthumb 22.927 -16.4706
lclavicle -8.17502e-015 -4.37326e-015
lhumerus -29.9046 20.7316 71.2894
lradius 63.4516
lwrist 3.67236
lhand -2.44156 20.8048
lfingers 7.12502
lthumb 23.2498 49.4212
rfemur -40.3923 16.564 9.53865
rtibia 20.5611
rfoot -26.4009 -32.4086
rtoes 4.3726
lfemur -0.933606 -11.0109 -24.3316
ltibia 8.48906
lfoot -20.7706 23.3577
ltoes -12.5027
25
root 0.993315 16.6265 -32.2686 10.6834 4.73414 0.360844
lowerback -1.55953 -1.02796 -4.39954
upperback -1.65647 -1.32936 0.63543
thorax -0.713294 -0.618987 3.10646
lowerneck -18.7444 -3.83304 -3.22018
upperneck 33.8317 -6.48653 5.10418
head 15.2835 -2.43525 1.50441
rclavicle -8.68441e-015 -6.55989e-015
rhumerus -41.4228 -7.44204 -77.6469
rradius 28.0201
rwrist -10.8801
rhand -2.58628 12.1234
rfingers 7.12502
rthumb 23.111 -16.5105
lclavicle -8.68441e-015 -6.55989e-015
lhumerus -29.961 19.6563 71.2964
lradius 63.4169
lwrist 2.9661
lhand -2.47742 20.5209
lfingers 7.12502
lthumb 23.2154 49.1416
rfemur -40.2975 20.3774 6.42145
rtibia 20.4513
rfoot -31.923 -35.9661
rtoes 8.83417
lfemur 1.74671 -12.4771 -24.7071
ltibia 5.75729
lfoot -19.1451 23.8099
ltoes -14.7605
26
root 0.993645 16.609 -32.1663 11.0548 3.89993 0.519364
lowerback -2.52805 -0.869294 -4.52607
upperback -1.44199 -1.0643 0.605056
thorax 0.0285317 -0.50663 3.1331
lowerneck -18.596 -3.8687 -3.34021
upperneck 33.2439 -6.42869 5.02879
head 14.9696 -2.44954 1.49766
rclavicle -2.01269e-014 -7.35503e-015
rhumerus -40.9718 -7.55615 -77.675
rradius 27.5626
rwrist -10.6133
rhand -2.59919 12.085
rfingers 7.12502
rthumb 23.0986 -16.5505
lclavicle -2.01269e-014 -7.35503e-015
lhumerus -29.4993 19.4825 71.4611
lradius 63.1715
lwrist 1.69532
lhand -3.58497 22.8039
lfingers 7.12502
lthumb 22.1525 51.5548
rfemur -41.4976 20.6493 5.69772
rtibia 20.2608
rfoot -32.7247 -35.2849
rtoes 9.92462
lfemur 3.2508 -11.6685 -25.0696
ltibia 3.0809
lfoot -17.5118 24.2544
ltoes -17.1633
27
root 0.987008 16.592 -32.0543 11.308 3.43818 0.573029
lowerback -1.9968 -0.495595 -4.24966
upperback -2.26849 -0.614585 0.270519
thorax -1.16463 -0.244789 2.6542
lowerneck -17.64 -4.294 -2.94509
upperneck 33.193 -7.11218 4.73831
head 14.7351 -2.75119 1.19891
rclavicle -6.13748e-015 9.93923e-016
rhumerus -42.5098 -8.49901 -77.3996
rradius 27.193
rwrist -9.95555
rhand -2.5195 12.0842
rfingers 7.12502
rthumb 23.175 -16.5416
lclavicle -6.13748e-015 9.93923e-016
lhumerus -30.4817 17.7839 71.0449
lradius 63.0954
lwrist 0.668681
lhand -5.03088 26.5062
lfingers 7.12502
lthumb 20.7637 55.4153
rfemur -42.376 20.925 5.19757
rtibia 20.152
rfoot -33.3715 -34.8138
rtoes 11.2617
lfemur 5.15405 -11.1942 -25.2637
ltibia -2.8625e-014
lfoot -15.8662 24.5581
ltoes -19.108
